<svg xmlns="http://www.w3.org/2000/svg" width="100" height="100" viewBox="0 0 100 100" role="img"><title>Starplast — Crescent map icon</title><g color="black"><g fill="none" stroke="currentColor" stroke-width="1.25" stroke-linecap="round" stroke-linejoin="round"><path d="M78 12C43 8 12 36 13 65C14 90 38 99 62 83C38 83 37 62 50 42C59 28 72 21 78 12Z"/><g transform="translate(30 53) rotate(-35) scale(0.7)"><g fill="currentColor" stroke="none"><circle cx="-8" cy="0" r="1.0"/><circle cx="-5" cy="-5" r="1.0"/><circle cx="-4" cy="3" r="1.0"/><circle cx="-1" cy="-2" r="1.0"/><circle cx="0" cy="6" r="1.0"/><circle cx="3" cy="-6" r="1.0"/><circle cx="4" cy="1" r="1.0"/><circle cx="7" cy="-2" r="1.0"/><circle cx="8" cy="4" r="1.0"/><circle cx="1" cy="1" r="1.0"/></g></g><g transform="translate(49 28) rotate(0) scale(0.65)"><g fill="currentColor" stroke="none"><circle cx="-8" cy="0" r="1.0"/><circle cx="-5" cy="-5" r="1.0"/><circle cx="-4" cy="3" r="1.0"/><circle cx="-1" cy="-2" r="1.0"/><circle cx="0" cy="6" r="1.0"/><circle cx="3" cy="-6" r="1.0"/><circle cx="4" cy="1" r="1.0"/><circle cx="7" cy="-2" r="1.0"/><circle cx="8" cy="4" r="1.0"/><circle cx="1" cy="1" r="1.0"/></g></g><g transform="translate(38 82) rotate(0) scale(0.7)"><g fill="currentColor" stroke="none"><circle cx="-8" cy="0" r="1.0"/><circle cx="-5" cy="-5" r="1.0"/><circle cx="-4" cy="3" r="1.0"/><circle cx="-1" cy="-2" r="1.0"/><circle cx="0" cy="6" r="1.0"/><circle cx="3" cy="-6" r="1.0"/><circle cx="4" cy="1" r="1.0"/><circle cx="7" cy="-2" r="1.0"/><circle cx="8" cy="4" r="1.0"/><circle cx="1" cy="1" r="1.0"/></g></g><g transform="translate(77 44) rotate(-20) scale(0.85)"><g fill="currentColor" stroke="none"><circle cx="-8" cy="0" r="1.0"/><circle cx="-5" cy="-5" r="1.0"/><circle cx="-4" cy="3" r="1.0"/><circle cx="-1" cy="-2" r="1.0"/><circle cx="0" cy="6" r="1.0"/><circle cx="3" cy="-6" r="1.0"/><circle cx="4" cy="1" r="1.0"/><circle cx="7" cy="-2" r="1.0"/><circle cx="8" cy="4" r="1.0"/><circle cx="1" cy="1" r="1.0"/></g></g><g transform="translate(75 74) rotate(0) scale(0.65)"><g fill="currentColor" stroke="none"><circle cx="-8" cy="0" r="1.0"/><circle cx="-5" cy="-5" r="1.0"/><circle cx="-4" cy="3" r="1.0"/><circle cx="-1" cy="-2" r="1.0"/><circle cx="0" cy="6" r="1.0"/><circle cx="3" cy="-6" r="1.0"/><circle cx="4" cy="1" r="1.0"/><circle cx="7" cy="-2" r="1.0"/><circle cx="8" cy="4" r="1.0"/><circle cx="1" cy="1" r="1.0"/></g></g><g stroke-width="1.05"><path d="M30 55L49 29"/><path d="M30 55L77 44"/><path d="M77 44L74 73"/><circle cx="30" cy="55" r="2.5" fill="white"/><circle cx="49" cy="29" r="2.5" fill="white"/><circle cx="77" cy="44" r="2.5" fill="white"/><circle cx="74" cy="73" r="2.5" fill="white"/></g><path d="M30 51Q30 55 26 55Q30 55 30 59Q30 55 34 55Q30 55 30 51Z" fill="white"/></g></g></svg>
