<svg xmlns="http://www.w3.org/2000/svg" width="100" height="100" viewBox="0 0 100 100" role="img"><title>Starplast — Apical atlas icon</title><g color="black"><g fill="none" stroke="currentColor" stroke-width="1.25" stroke-linecap="round" stroke-linejoin="round"><path d="M71 9C39 17 16 47 21 76C25 97 46 95 61 81C40 79 38 62 47 43C55 28 64 19 71 9Z"/><path d="M58 19L66 25 M55 23L62 29"/><g transform="translate(30 66) rotate(65) scale(0.7)"><g fill="currentColor" stroke="none"><circle cx="-8" cy="0" r="1.0"/><circle cx="-5" cy="-5" r="1.0"/><circle cx="-4" cy="3" r="1.0"/><circle cx="-1" cy="-2" r="1.0"/><circle cx="0" cy="6" r="1.0"/><circle cx="3" cy="-6" r="1.0"/><circle cx="4" cy="1" r="1.0"/><circle cx="7" cy="-2" r="1.0"/><circle cx="8" cy="4" r="1.0"/><circle cx="1" cy="1" r="1.0"/></g></g><g transform="translate(67 52) rotate(0) scale(0.85)"><g fill="currentColor" stroke="none"><circle cx="-8" cy="0" r="1.0"/><circle cx="-5" cy="-5" r="1.0"/><circle cx="-4" cy="3" r="1.0"/><circle cx="-1" cy="-2" r="1.0"/><circle cx="0" cy="6" r="1.0"/><circle cx="3" cy="-6" r="1.0"/><circle cx="4" cy="1" r="1.0"/><circle cx="7" cy="-2" r="1.0"/><circle cx="8" cy="4" r="1.0"/><circle cx="1" cy="1" r="1.0"/></g></g><g transform="translate(77 81) rotate(0) scale(0.65)"><g fill="currentColor" stroke="none"><circle cx="-8" cy="0" r="1.0"/><circle cx="-5" cy="-5" r="1.0"/><circle cx="-4" cy="3" r="1.0"/><circle cx="-1" cy="-2" r="1.0"/><circle cx="0" cy="6" r="1.0"/><circle cx="3" cy="-6" r="1.0"/><circle cx="4" cy="1" r="1.0"/><circle cx="7" cy="-2" r="1.0"/><circle cx="8" cy="4" r="1.0"/><circle cx="1" cy="1" r="1.0"/></g></g><g stroke-width="1.05"><path d="M48 36L31 66"/><path d="M48 36L67 52"/><path d="M67 52L78 81"/><circle cx="48" cy="36" r="2.5" fill="white"/><circle cx="31" cy="66" r="2.5" fill="white"/><circle cx="67" cy="52" r="2.5" fill="white"/><circle cx="78" cy="81" r="2.5" fill="white"/></g></g></g></svg>
