<svg xmlns="http://www.w3.org/2000/svg" width="100" height="100" viewBox="0 0 100 100" role="img"><title>Starplast — Inner atlas icon</title><g color="black"><g fill="none" stroke="currentColor" stroke-width="1.25" stroke-linecap="round" stroke-linejoin="round"><path d="M81 10C43 6 12 35 13 68C14 90 32 100 55 85C33 69 45 39 81 10Z M66 17L73 24"/><g transform="translate(48 27) rotate(-30) scale(0.7)"><g fill="currentColor" stroke="none"><circle cx="-8" cy="0" r="1.0"/><circle cx="-5" cy="-5" r="1.0"/><circle cx="-4" cy="3" r="1.0"/><circle cx="-1" cy="-2" r="1.0"/><circle cx="0" cy="6" r="1.0"/><circle cx="3" cy="-6" r="1.0"/><circle cx="4" cy="1" r="1.0"/><circle cx="7" cy="-2" r="1.0"/><circle cx="8" cy="4" r="1.0"/><circle cx="1" cy="1" r="1.0"/></g></g><g transform="translate(27 54) rotate(70) scale(0.65)"><g fill="currentColor" stroke="none"><circle cx="-8" cy="0" r="1.0"/><circle cx="-5" cy="-5" r="1.0"/><circle cx="-4" cy="3" r="1.0"/><circle cx="-1" cy="-2" r="1.0"/><circle cx="0" cy="6" r="1.0"/><circle cx="3" cy="-6" r="1.0"/><circle cx="4" cy="1" r="1.0"/><circle cx="7" cy="-2" r="1.0"/><circle cx="8" cy="4" r="1.0"/><circle cx="1" cy="1" r="1.0"/></g></g><g transform="translate(31 78) rotate(0) scale(0.6)"><g fill="currentColor" stroke="none"><circle cx="-8" cy="0" r="1.0"/><circle cx="-5" cy="-5" r="1.0"/><circle cx="-4" cy="3" r="1.0"/><circle cx="-1" cy="-2" r="1.0"/><circle cx="0" cy="6" r="1.0"/><circle cx="3" cy="-6" r="1.0"/><circle cx="4" cy="1" r="1.0"/><circle cx="7" cy="-2" r="1.0"/><circle cx="8" cy="4" r="1.0"/><circle cx="1" cy="1" r="1.0"/></g></g><g stroke-width="1.05"><path d="M49 27L26 53"/><path d="M26 53L31 77"/><path d="M49 27L31 77"/><circle cx="49" cy="27" r="2.5" fill="white"/><circle cx="26" cy="53" r="2.5" fill="white"/><circle cx="31" cy="77" r="2.5" fill="white"/></g></g></g></svg>
