<svg xmlns="http://www.w3.org/2000/svg" width="100" height="100" viewBox="0 0 100 100" role="img"><title>Starplast — Apical fan icon</title><g color="black"><g fill="none" stroke="currentColor" stroke-width="1.25" stroke-linecap="round" stroke-linejoin="round"><g transform="translate(0 12) scale(.8)"><path d="M71 9C39 17 16 47 21 76C25 97 46 95 61 81C40 79 38 62 47 43C55 28 64 19 71 9Z"/></g><g transform="translate(79 24) rotate(0) scale(0.7)"><g fill="currentColor" stroke="none"><circle cx="-8" cy="0" r="1.0"/><circle cx="-5" cy="-5" r="1.0"/><circle cx="-4" cy="3" r="1.0"/><circle cx="-1" cy="-2" r="1.0"/><circle cx="0" cy="6" r="1.0"/><circle cx="3" cy="-6" r="1.0"/><circle cx="4" cy="1" r="1.0"/><circle cx="7" cy="-2" r="1.0"/><circle cx="8" cy="4" r="1.0"/><circle cx="1" cy="1" r="1.0"/></g></g><g transform="translate(84 52) rotate(25) scale(0.7)"><g fill="currentColor" stroke="none"><circle cx="-8" cy="0" r="1.0"/><circle cx="-5" cy="-5" r="1.0"/><circle cx="-4" cy="3" r="1.0"/><circle cx="-1" cy="-2" r="1.0"/><circle cx="0" cy="6" r="1.0"/><circle cx="3" cy="-6" r="1.0"/><circle cx="4" cy="1" r="1.0"/><circle cx="7" cy="-2" r="1.0"/><circle cx="8" cy="4" r="1.0"/><circle cx="1" cy="1" r="1.0"/></g></g><g transform="translate(73 82) rotate(-15) scale(0.75)"><g fill="currentColor" stroke="none"><circle cx="-8" cy="0" r="1.0"/><circle cx="-5" cy="-5" r="1.0"/><circle cx="-4" cy="3" r="1.0"/><circle cx="-1" cy="-2" r="1.0"/><circle cx="0" cy="6" r="1.0"/><circle cx="3" cy="-6" r="1.0"/><circle cx="4" cy="1" r="1.0"/><circle cx="7" cy="-2" r="1.0"/><circle cx="8" cy="4" r="1.0"/><circle cx="1" cy="1" r="1.0"/></g></g><g stroke-width="1.05"><path d="M36 49L78 24"/><path d="M36 49L84 52"/><path d="M36 49L74 82"/><circle cx="36" cy="49" r="2.5" fill="white"/><circle cx="78" cy="24" r="2.5" fill="white"/><circle cx="84" cy="52" r="2.5" fill="white"/><circle cx="74" cy="82" r="2.5" fill="white"/></g><path d="M36 45Q36 49 32 49Q36 49 36 53Q36 49 40 49Q36 49 36 45Z" fill="white"/></g></g></svg>
