<svg xmlns="http://www.w3.org/2000/svg" viewBox="0 0 64 64" width="64" height="64"><title>starplast — most of this proteome is unstudied</title><circle cx="48.74" cy="11.06" r="4.20" fill="#000"/><circle cx="39.40" cy="27.09" r="4.20" fill="#000"/><circle cx="34.58" cy="27.27" r="4.20" fill="#000"/><circle cx="27.08" cy="41.47" r="4.20" fill="#000"/><circle cx="49.66" cy="14.91" r="4.20" fill="#000"/><circle cx="45.94" cy="38.38" r="4.20" fill="#000"/><circle cx="30.83" cy="42.04" r="4.20" fill="#000"/><circle cx="45.44" cy="41.93" r="4.20" fill="#000"/><circle cx="31.26" cy="48.85" r="2.2" fill="none" stroke="#000" stroke-width="1.4"/><circle cx="46.19" cy="30.83" r="2.2" fill="none" stroke="#000" stroke-width="1.4"/><circle cx="13.87" cy="21.23" r="2.2" fill="none" stroke="#000" stroke-width="1.4"/><circle cx="19.76" cy="25.49" r="2.2" fill="none" stroke="#000" stroke-width="1.4"/><circle cx="53.68" cy="12.11" r="2.2" fill="none" stroke="#000" stroke-width="1.4"/><circle cx="44.95" cy="35.38" r="2.2" fill="none" stroke="#000" stroke-width="1.4"/><circle cx="20.67" cy="41.66" r="2.2" fill="none" stroke="#000" stroke-width="1.4"/><circle cx="25.06" cy="17.77" r="2.2" fill="none" stroke="#000" stroke-width="1.4"/><circle cx="39.90" cy="40.57" r="2.2" fill="none" stroke="#000" stroke-width="1.4"/><circle cx="46.47" cy="28.01" r="2.2" fill="none" stroke="#000" stroke-width="1.4"/><circle cx="35.45" cy="48.46" r="2.2" fill="none" stroke="#000" stroke-width="1.4"/><circle cx="48.66" cy="18.07" r="2.2" fill="none" stroke="#000" stroke-width="1.4"/><circle cx="29.70" cy="16.58" r="2.2" fill="none" stroke="#000" stroke-width="1.4"/><circle cx="8.68" cy="12.94" r="2.2" fill="none" stroke="#000" stroke-width="1.4"/><circle cx="44.23" cy="26.04" r="2.2" fill="none" stroke="#000" stroke-width="1.4"/><circle cx="23.00" cy="49.45" r="2.2" fill="none" stroke="#000" stroke-width="1.4"/><circle cx="49.93" cy="55.02" r="2.2" fill="none" stroke="#000" stroke-width="1.4"/><circle cx="15.70" cy="11.10" r="2.2" fill="none" stroke="#000" stroke-width="1.4"/><circle cx="10.13" cy="27.04" r="2.2" fill="none" stroke="#000" stroke-width="1.4"/><circle cx="47.21" cy="50.29" r="2.2" fill="none" stroke="#000" stroke-width="1.4"/><circle cx="39.18" cy="49.35" r="2.2" fill="none" stroke="#000" stroke-width="1.4"/><circle cx="37.31" cy="13.28" r="2.2" fill="none" stroke="#000" stroke-width="1.4"/></svg>