<svg xmlns="http://www.w3.org/2000/svg" viewBox="0 0 64 64" width="64" height="64"><title>starplast — most of this proteome is unstudied</title><circle cx="27.89" cy="27.68" r="4.20" fill="#000"/><circle cx="26.56" cy="21.71" r="4.20" fill="#000"/><circle cx="11.89" cy="7.98" r="4.20" fill="#000"/><circle cx="12.82" cy="52.00" r="4.20" fill="#000"/><circle cx="22.04" cy="12.07" r="4.20" fill="#000"/><circle cx="57.22" cy="37.82" r="4.20" fill="#000"/><circle cx="27.52" cy="14.28" r="4.20" fill="#000"/><circle cx="55.34" cy="41.11" r="4.20" fill="#000"/><circle cx="53.93" cy="16.77" r="4.20" fill="#000"/><circle cx="49.00" cy="29.75" r="2.2" fill="none" stroke="#000" stroke-width="1.4"/><circle cx="32.46" cy="57.14" r="2.2" fill="none" stroke="#000" stroke-width="1.4"/><circle cx="52.38" cy="13.37" r="2.2" fill="none" stroke="#000" stroke-width="1.4"/><circle cx="8.97" cy="27.14" r="2.2" fill="none" stroke="#000" stroke-width="1.4"/><circle cx="48.19" cy="42.27" r="2.2" fill="none" stroke="#000" stroke-width="1.4"/><circle cx="41.65" cy="49.87" r="2.2" fill="none" stroke="#000" stroke-width="1.4"/><circle cx="29.67" cy="27.78" r="2.2" fill="none" stroke="#000" stroke-width="1.4"/><circle cx="37.02" cy="17.90" r="2.2" fill="none" stroke="#000" stroke-width="1.4"/><circle cx="46.07" cy="39.93" r="2.2" fill="none" stroke="#000" stroke-width="1.4"/><circle cx="45.80" cy="51.56" r="2.2" fill="none" stroke="#000" stroke-width="1.4"/><circle cx="54.19" cy="26.39" r="2.2" fill="none" stroke="#000" stroke-width="1.4"/><circle cx="20.75" cy="30.69" r="2.2" fill="none" stroke="#000" stroke-width="1.4"/><circle cx="19.74" cy="17.41" r="2.2" fill="none" stroke="#000" stroke-width="1.4"/><circle cx="14.79" cy="37.55" r="2.2" fill="none" stroke="#000" stroke-width="1.4"/><circle cx="10.79" cy="30.05" r="2.2" fill="none" stroke="#000" stroke-width="1.4"/></svg>