<svg xmlns="http://www.w3.org/2000/svg" viewBox="0 0 64 64" width="64" height="64"><title>starplast — most of this proteome is unstudied</title><circle cx="22.00" cy="19.20" r="4.20" fill="#000"/><circle cx="48.27" cy="35.43" r="4.20" fill="#000"/><circle cx="46.54" cy="29.84" r="4.20" fill="#000"/><circle cx="54.66" cy="50.23" r="4.20" fill="#000"/><circle cx="34.45" cy="55.04" r="4.20" fill="#000"/><circle cx="20.81" cy="17.04" r="4.20" fill="#000"/><circle cx="52.94" cy="55.47" r="2.2" fill="none" stroke="#000" stroke-width="1.4"/><circle cx="47.10" cy="43.72" r="2.2" fill="none" stroke="#000" stroke-width="1.4"/><circle cx="8.33" cy="18.98" r="2.2" fill="none" stroke="#000" stroke-width="1.4"/><circle cx="46.21" cy="6.33" r="2.2" fill="none" stroke="#000" stroke-width="1.4"/><circle cx="21.98" cy="17.90" r="2.2" fill="none" stroke="#000" stroke-width="1.4"/><circle cx="54.54" cy="17.38" r="2.2" fill="none" stroke="#000" stroke-width="1.4"/><circle cx="11.13" cy="22.95" r="2.2" fill="none" stroke="#000" stroke-width="1.4"/><circle cx="54.00" cy="37.02" r="2.2" fill="none" stroke="#000" stroke-width="1.4"/><circle cx="51.19" cy="46.22" r="2.2" fill="none" stroke="#000" stroke-width="1.4"/><circle cx="51.05" cy="57.80" r="2.2" fill="none" stroke="#000" stroke-width="1.4"/><circle cx="39.15" cy="9.15" r="2.2" fill="none" stroke="#000" stroke-width="1.4"/><circle cx="10.95" cy="52.75" r="2.2" fill="none" stroke="#000" stroke-width="1.4"/><circle cx="34.54" cy="57.89" r="2.2" fill="none" stroke="#000" stroke-width="1.4"/><circle cx="38.24" cy="57.75" r="2.2" fill="none" stroke="#000" stroke-width="1.4"/><circle cx="26.98" cy="52.37" r="2.2" fill="none" stroke="#000" stroke-width="1.4"/><circle cx="50.81" cy="52.79" r="2.2" fill="none" stroke="#000" stroke-width="1.4"/><circle cx="27.95" cy="20.74" r="2.2" fill="none" stroke="#000" stroke-width="1.4"/><circle cx="41.97" cy="41.10" r="2.2" fill="none" stroke="#000" stroke-width="1.4"/><circle cx="20.42" cy="44.13" r="2.2" fill="none" stroke="#000" stroke-width="1.4"/><circle cx="51.55" cy="49.67" r="2.2" fill="none" stroke="#000" stroke-width="1.4"/><circle cx="14.70" cy="33.83" r="2.2" fill="none" stroke="#000" stroke-width="1.4"/><circle cx="42.47" cy="37.86" r="2.2" fill="none" stroke="#000" stroke-width="1.4"/><circle cx="18.25" cy="13.89" r="2.2" fill="none" stroke="#000" stroke-width="1.4"/><circle cx="37.76" cy="53.87" r="2.2" fill="none" stroke="#000" stroke-width="1.4"/><circle cx="9.95" cy="47.29" r="2.2" fill="none" stroke="#000" stroke-width="1.4"/><circle cx="20.54" cy="26.53" r="2.2" fill="none" stroke="#000" stroke-width="1.4"/><circle cx="55.14" cy="44.77" r="2.2" fill="none" stroke="#000" stroke-width="1.4"/><circle cx="12.41" cy="26.50" r="2.2" fill="none" stroke="#000" stroke-width="1.4"/><circle cx="28.86" cy="40.84" r="2.2" fill="none" stroke="#000" stroke-width="1.4"/><circle cx="43.75" cy="47.62" r="2.2" fill="none" stroke="#000" stroke-width="1.4"/><circle cx="22.63" cy="41.39" r="2.2" fill="none" stroke="#000" stroke-width="1.4"/><circle cx="34.41" cy="24.80" r="2.2" fill="none" stroke="#000" stroke-width="1.4"/><circle cx="29.89" cy="33.81" r="2.2" fill="none" stroke="#000" stroke-width="1.4"/><circle cx="50.24" cy="51.13" r="2.2" fill="none" stroke="#000" stroke-width="1.4"/></svg>